<?xml version="1.0" encoding="utf-8"?>
<!-- Generator: Adobe Illustrator 17.0.0, SVG Export Plug-In . SVG Version: 6.00 Build 0)  -->
<!DOCTYPE svg PUBLIC "-//W3C//DTD SVG 1.1//EN" "http://www.w3.org/Graphics/SVG/1.1/DTD/svg11.dtd">
<svg version="1.1" id="Layer_1" xmlns="http://www.w3.org/2000/svg" xmlns:xlink="http://www.w3.org/1999/xlink" x="0px" y="0px"
	 width="1200px" height="1200px" viewBox="0 0 1200 1200" enable-background="new 0 0 1200 1200" xml:space="preserve">
<g>
	<linearGradient id="SVGID_1_" gradientUnits="userSpaceOnUse" x1="692.002" y1="656.2198" x2="881.38" y2="656.2198">
		<stop  offset="0" style="stop-color:#EC1C24"/>
		<stop  offset="1" style="stop-color:#BE1E2D"/>
	</linearGradient>
	<path fill="url(#SVGID_1_)" d="M692.002,678.292c0,0,47.345-70.776,100.456-44.909c53.111,25.865,68.813,34.951,88.922,31.045
		c0,0-38.292,40.175-106.087,7.533C750.811,626.136,701.221,668.194,692.002,678.292z"/>
	<linearGradient id="SVGID_2_" gradientUnits="userSpaceOnUse" x1="360.4007" y1="656.2198" x2="549.7786" y2="656.2198">
		<stop  offset="0" style="stop-color:#EC1C24"/>
		<stop  offset="1" style="stop-color:#BE1E2D"/>
	</linearGradient>
	<path fill="url(#SVGID_2_)" d="M549.779,678.292c0,0-47.345-70.776-100.455-44.909c-53.111,25.865-68.813,34.951-88.922,31.045
		c0,0,38.292,40.175,106.087,7.533C490.969,626.136,540.56,668.194,549.779,678.292z"/>
	<linearGradient id="SVGID_3_" gradientUnits="userSpaceOnUse" x1="771.4582" y1="517.3054" x2="942.2929" y2="517.3054">
		<stop  offset="0" style="stop-color:#EC1C24"/>
		<stop  offset="1" style="stop-color:#BE1E2D"/>
	</linearGradient>
	<path fill="url(#SVGID_3_)" d="M823.001,533.231c-18.832,65.284-54.86,83.017-51.297,82.379
		c213.252-20.234,166.172-196.627,166.172-196.627S924.054,501.268,823.001,533.231z"/>
	<linearGradient id="SVGID_4_" gradientUnits="userSpaceOnUse" x1="299.4877" y1="517.3054" x2="470.3227" y2="517.3054">
		<stop  offset="0" style="stop-color:#EC1C24"/>
		<stop  offset="1" style="stop-color:#BE1E2D"/>
	</linearGradient>
	<path fill="url(#SVGID_4_)" d="M418.78,533.231c18.832,65.284,54.86,83.017,51.297,82.379
		c-213.252-20.234-166.172-196.627-166.172-196.627S317.727,501.268,418.78,533.231z"/>
	<linearGradient id="SVGID_5_" gradientUnits="userSpaceOnUse" x1="807.9696" y1="626.6389" x2="961.1412" y2="626.6389">
		<stop  offset="0" style="stop-color:#EC1C24"/>
		<stop  offset="1" style="stop-color:#BE1E2D"/>
	</linearGradient>
	<path fill="url(#SVGID_5_)" d="M864.732,607.5c-16.771,7.858-35.711,13.874-56.762,18.038
		c84.104,52.554,153.172-13.84,153.172-13.84C932.821,631.5,879.874,614.771,864.732,607.5z"/>
	<linearGradient id="SVGID_6_" gradientUnits="userSpaceOnUse" x1="291.9778" y1="626.6389" x2="433.811" y2="626.6389">
		<stop  offset="0" style="stop-color:#EC1C24"/>
		<stop  offset="1" style="stop-color:#BE1E2D"/>
	</linearGradient>
	<path fill="url(#SVGID_6_)" d="M377.049,607.5c16.771,7.858,35.711,13.874,56.762,18.038
		c-84.104,52.554-141.833-13.84-141.833-13.84C320.297,631.5,361.907,614.771,377.049,607.5z"/>
	<linearGradient id="SVGID_7_" gradientUnits="userSpaceOnUse" x1="643.2047" y1="644.1129" x2="813.5851" y2="644.1129">
		<stop  offset="0" style="stop-color:#EC1C24"/>
		<stop  offset="1" style="stop-color:#BE1E2D"/>
	</linearGradient>
	<path fill="url(#SVGID_7_)" d="M813.585,486.151c0,0,0.831,90.756-86.144,141.963c-86.972,51.207-80.083,160.205-84.152,173.96
		c0,0-5.589-172.177,74.202-217.15C717.491,584.924,798.205,540.607,813.585,486.151z"/>
	<linearGradient id="SVGID_8_" gradientUnits="userSpaceOnUse" x1="428.1955" y1="644.1129" x2="598.576" y2="644.1129">
		<stop  offset="0" style="stop-color:#EC1C24"/>
		<stop  offset="1" style="stop-color:#BE1E2D"/>
	</linearGradient>
	<path fill="url(#SVGID_8_)" d="M428.196,486.151c0,0-0.831,90.756,86.144,141.963c86.972,51.207,80.083,160.205,84.152,173.96
		c0,0,5.589-172.177-74.202-217.15C524.29,584.924,443.575,540.607,428.196,486.151z"/>
	<linearGradient id="SVGID_9_" gradientUnits="userSpaceOnUse" x1="883.247" y1="566.105" x2="993.6775" y2="566.105">
		<stop  offset="0" style="stop-color:#EC1C24"/>
		<stop  offset="1" style="stop-color:#BE1E2D"/>
	</linearGradient>
	<path fill="url(#SVGID_9_)" d="M928.744,555.393c-11.838,16.759-27.052,30.804-45.497,42.145
		c17.218,3.986,88.627,13.381,110.43-65.435C968.429,563.154,937.546,558.49,928.744,555.393z"/>
	<linearGradient id="SVGID_10_" gradientUnits="userSpaceOnUse" x1="254.4196" y1="566.105" x2="358.5339" y2="566.105">
		<stop  offset="0" style="stop-color:#EC1C24"/>
		<stop  offset="1" style="stop-color:#BE1E2D"/>
	</linearGradient>
	<path fill="url(#SVGID_10_)" d="M313.036,555.393c11.838,16.759,27.052,30.804,45.497,42.145
		c-17.219,3.986-82.311,13.381-104.114-65.435C279.668,563.154,304.235,558.49,313.036,555.393z"/>
	<g>
		<linearGradient id="SVGID_11_" gradientUnits="userSpaceOnUse" x1="551.6329" y1="644.867" x2="620.0558" y2="644.867">
			<stop  offset="0" style="stop-color:#EC1C24"/>
			<stop  offset="1" style="stop-color:#BE1E2D"/>
		</linearGradient>
		<path fill="url(#SVGID_11_)" d="M551.633,579.897c0,0,60.489,51.474,62.459,251.721l5.964-373.501
			C620.056,458.116,599.027,551.021,551.633,579.897z"/>
		<linearGradient id="SVGID_12_" gradientUnits="userSpaceOnUse" x1="620.0558" y1="644.867" x2="688.4787" y2="644.867">
			<stop  offset="0" style="stop-color:#EC1C24"/>
			<stop  offset="1" style="stop-color:#BE1E2D"/>
		</linearGradient>
		<path fill="url(#SVGID_12_)" d="M620.056,458.116l5.963,373.501c0.54-189.262,62.46-251.721,62.46-251.721
			C641.085,551.021,620.056,458.116,620.056,458.116z"/>
	</g>
</g>
</svg>
